<svg id="Componente_91_1" data-name="Componente 91 – 1" xmlns="http://www.w3.org/2000/svg" width="243.797" height="35" viewBox="0 0 243.797 35">
  <g id="Grupo_6046" data-name="Grupo 6046" transform="translate(-8.783 -16.724)">
    <path id="Logo_Shift_2022_-_icone_Positivo_Tagline_cópia" data-name="Logo Shift 2022 - icone_Positivo_Tagline cópia" d="M178.59,230.46a7.918,7.918,0,0,0-7.915,7.789h-.007v5.865h-4.408a3.961,3.961,0,1,0,0,7.922h11.481a7.922,7.922,0,0,0,7.922-7.909h.022v-5.745h1.16a7.922,7.922,0,0,0,7.922-7.922Zm.254,13.654h-.1c-.183,0-.365-.012-.545-.027v.027h-6.406c.1-1.727.788-5.078,4.448-5.732h8.321C184.417,240.333,183.538,244.089,178.844,244.114Z" transform="translate(-153.517 -206.588)" fill="#003eaa"/>
    <text id="Licenciamento" transform="translate(52.58 45.724)" fill="#003eaa" font-size="30" font-family="GTPlanar-Regular, GT Planar"><tspan x="0" y="0">Licenciamento</tspan></text>
  </g>
</svg>
